# xmcd CD database file
#
# Track frame offsets:
#	150
#	49489
#	89162
#	142245
#	197467
#	245675
#
# Disc length: 3943 seconds
#
# Revision: 0
# Processed by: cddbd v1.5.2PL0 Copyright (c) Steve Scherf et al.
# Submitted via: CDex 1.51
#
DISCID=5e0f6506
DTITLE=omnibus - Jazz Masters Live at Sweet Basil
DYEAR=1900
DGENRE=Jazz
TTITLE0=Moanin'
TTITLE1=Bud and Bird
TTITLE2=Booker's Waltz
TTITLE3=What it is
TTITLE4=Work Song
TTITLE5=Dealin'
EXTD=
EXTT0=
EXTT1=
EXTT2=
EXTT3=
EXTT4=
EXTT5=
PLAYORDER=
